<svg version="1.1" xmlns="http://www.w3.org/2000/svg" xmlns:xlink="http://www.w3.org/1999/xlink" xmlns:i="http://ns.adobe.com/AdobeIllustrator/10.0/" xmlns:sketch="http://www.bohemiancoding.com/sketch/ns" height="100%" width="100%" x="0px" y="0px" viewBox="0 0 640 480" xml:space="preserve" preserveAspectRatio="xMidYMid meet" class=""><rect x="0px" y="0px" width="100%" height="100%" fill="#ee6439"></rect><g class="logo-container-box logoContainerBox" transform="scale(1) translate(-0.00000762939453125,0)"><g class="container_1" transform="scale(1) translate(219.93828332424164,140.37451934814453)" fill="#ff956a"><g id="g10" transform="matrix(1.3333333,0,0,-1.3333333,0,533.33333)">
	<g id="g12" transform="translate(17.1463,148.9309)">
		<path id="path14" class="st0" d="M-14.1,156.2l-2.3,24.7l72.1,6.5l74.6,9.1l1.9-24.7L58,164.9L-14.1,156.2z"></path>
	</g>
</g>

</g><g class="containerBody" transform="scale(1.12) translate(-34.285714285714334,-19.05930982317244)"><g class="sampleIconBox" transform="scale(1) translate(0,9)"><g class="sampleIcons_1" transform="scale(1.2068129535539736) translate(215.1607090958925,96.58409109561242)" fill="#ffffff"><switch><g i:extraneous="self"><path d="M83.698,35.687c0,0,0.553-4.243,4.796-6.825c-1.614-1.245-1.983-1.292-1.983-1.292    s-1.891,1.568-2.26,2.398c-0.046-0.737,0.369-2.352,1.245-3.182c0.554-0.507-2.859-1.015-3.458-0.738    c-0.6,0.276-1.384,2.075-1.43,2.352c-0.047,0.276-1.015,0.322-0.738-0.046s1.015-1.614,1.384-1.983c0,0-1.845-0.139-2.029-0.046    s-1.799,2.767-1.983,3.643c-2.675-0.461-5.672-2.767-7.009-2.813c-1.338-0.046-0.784,0.784-3.09,0.554    c0.368-1.845,0.553-3.597,0.23-5.027c0,0-7.287-12.958-28.546-12.451c-1.799,0-1.476,3.92,1.106,5.211c0,0-2.036,3.874-2.24,4.059    c-0.204,0.184-2.141-0.277-3.063-1.983C33.708,15.811,20.98,6.218,18.905,5.711s-7.009,3.689-7.378,4.842S16,14.98,18.167,15.165    c1.172,0.099,0.784-0.784,1.43-0.369c2.628,1.245,9.546,8.255,10.284,22.32c0.174,3.661,1.153,7.164-1.675,13.743    c-1.599,4.058-3.136,16.539-2.152,20.967c0.984,4.427,1.968,12.113,13.589,16.848c-0.677,3.505-0.984,5.658-0.984,5.658    l8.117-12.236c0,0,0.061-1.107-1.169-1.414c-1.229-0.309-4.488-7.994-3.874-8.733c2.667-3.414,8.854-9.223,11.314-10.452    c2.23,3.003,5.333,9.085,5.287,10.452c-0.046,1.369,5.026,3.444,7.148,2.199c0.368-0.23,5.58-5.441,4.657-12.267    c-1.706,0.322-2.905,0.969-3.32,1.291c0.554-2.075,0.738-13.189-0.6-14.757c-1.337-1.568-5.119-0.507-5.672-0.231    c0.461-0.646,1.291-4.104,0.737-4.75c-0.553-0.646,6.641-6.364,8.348-6.641c1.706-0.276,8.716,1.245,9.914,2.168    c1.477-0.139,5.027-0.323,6.872,0.23c0,0,0.691-2.767,0.415-3.505C86.834,35.271,83.698,35.687,83.698,35.687z M48.281,39.514    c-1.614-0.092-2.767-3.044-2.905-3.367c0.6,0.277,4.42,1.552,5.303,1.707C51.278,38.223,49.895,39.606,48.281,39.514z     M59.118,39.837c-1.245,0.323-3.199-1.045-2.398-1.199c1.006-0.194,3.413-0.83,4.243-1.153S60.363,39.514,59.118,39.837z"></path></g></switch></g></g><g class="sampleTexts_1" transform="scale(1) translate(0,-3.0000061035156307)"><g class="logo--name svgLogoName_1 logoNameBox" transform="scale(1) translate(132.85000228881836,304.75999984741213)" fill="#ffffff"><path d="M3.59-32.43L3.59-32.43L3.59-32.43Q3.59-42.77 14.64-51.57L14.64-51.57L28.12-42.59L28.12-42.59Q18.96-36.84 18.96-30.37L18.96-30.37L18.96-30.37Q18.96-27.67 20.80-24.66L20.80-24.66L20.80-24.66Q22.64-21.65 24.53-18.69L24.53-18.69L24.53-18.69Q26.41-15.72 26.41-13.12L26.41-13.12L26.41-13.12Q26.41-2.52 11.68 3.32L11.68 3.32L8.18-1.44L8.18-1.44Q11.77-3.41 13.16-5.26L13.16-5.26L13.16-5.26Q14.55-7.10 14.55-9.34L14.55-9.34L14.55-9.34Q14.55-11.59 12.85-14.33L12.85-14.33L12.85-14.33Q11.14-17.07 9.07-19.36L9.07-19.36L9.07-19.36Q7.01-21.65 5.30-25.20L5.30-25.20L5.30-25.20Q3.59-28.75 3.59-32.43ZM67.66-38.54L67.66-38.54L67.66-38.54Q69.01-38.54 70.36-38.00L70.36-38.00L70.36-38.00Q73.05-34.86 74.67-28.48L74.67-28.48L74.67-28.48Q76.29-22.10 76.29-14.29L76.29-14.29L76.29-14.29Q76.29-6.47 72.88-2.34L72.88-2.34L72.88-2.34Q69.46 1.80 61.02 1.80L61.02 1.80L61.02 1.80Q55.00 1.80 49.70-0.72L49.70-0.72L47.63 15.27L40.80 15.99L38.55-35.40L54.28-37.82L52.66-24.89L53.20-24.89L53.20-24.89Q56.16-31.18 59.89-34.86L59.89-34.86L59.89-34.86Q63.62-38.54 67.66-38.54ZM58.14-2.79L58.14-2.79L58.14-2.79Q60.84-2.79 62.81-3.77L62.81-3.77L62.81-3.77Q63.89-9.43 63.89-14.55L63.89-14.55L63.89-14.55Q63.89-25.43 62.45-29.74L62.45-29.74L62.45-29.74Q60.84-29.11 60.03-28.66L60.03-28.66L60.03-28.66Q59.22-28.21 57.42-26.59L57.42-26.59L57.42-26.59Q52.21-21.74 50.23-5.48L50.23-5.48L50.23-5.48Q53.47-2.79 58.14-2.79ZM113.41-29.92L113.41-29.92L113.41-29.92Q119.34-23 119.34-14.20L119.34-14.20L119.34-14.20Q119.34-5.39 115.83-1.80L115.83-1.80L115.83-1.80Q112.33 1.80 102.89 1.80L102.89 1.80L102.89 1.80Q93.46 1.80 88.25-2.52L88.25-2.52L88.25-2.52Q84.66-20.13 92.38-31.09L92.38-31.09L92.38-31.09Q97.23-37.82 100.92-39.71L100.92-39.71L100.92-39.71Q107.93-36.12 113.41-29.92ZM109.63-6.20L109.63-6.20L109.63-6.20Q110.80-10.69 110.80-16.62L110.80-16.62L110.80-16.62Q110.80-22.55 107.84-28.30L107.84-28.30L107.84-28.30Q101.73-25.07 97.73-18.46L97.73-18.46L97.73-18.46Q93.73-11.86 93.73-5.12L93.73-5.12L93.73-5.12Q96.07-4.67 100.51-4.67L100.51-4.67L100.51-4.67Q104.96-4.67 109.63-6.20ZM142.35 0.45L135.07 1.08L131.93-28.57L125.10-27.67L124.65-35.22L131.12-35.58L130.04-45.82L148.37-48.34L146.84-36.39L154.21-36.75L153.94-31.80L146.12-30.73L142.35 0.45ZM213.62-38.54L213.62-38.54L213.62-38.54Q214.96-38.54 216.40-38.00L216.40-38.00L216.40-38.00Q220.18-33.51 221.52-22.28L221.52-22.28L221.52-22.28Q222.87-11.05 222.87 0L222.87 0L209.66 1.08L209.66 1.08Q209.66-15.90 208.41-29.74L208.41-29.74L208.41-29.74Q198.61-26.14 195.38 0.45L195.38 0.45L188.10 1.08L184.42-35.40L200.14-37.82L198.43-24.89L199.15-24.89L199.15-24.89Q202.12-31.27 205.85-34.90L205.85-34.90L205.85-34.90Q209.57-38.54 213.62-38.54ZM245.25 0.45L237.98 1.08L234.29-35.40L250.02-37.73L245.25 0.45ZM236.58-43.53L236.58-43.53L236.58-43.53Q234.56-45.55 234.56-48.38L234.56-48.38L234.56-48.38Q234.56-51.21 236.58-53.19L236.58-53.19L236.58-53.19Q238.61-55.16 241.39-55.16L241.39-55.16L241.39-55.16Q244.18-55.16 246.20-53.19L246.20-53.19L246.20-53.19Q248.22-51.21 248.22-48.38L248.22-48.38L248.22-48.38Q248.22-45.55 246.20-43.53L246.20-43.53L246.20-43.53Q244.18-41.51 241.39-41.51L241.39-41.51L241.39-41.51Q238.61-41.51 236.58-43.53ZM290.10-38.54L290.10-38.54L290.10-38.54Q291.45-38.54 292.88-38.00L292.88-38.00L292.88-38.00Q296.66-33.51 298.00-22.28L298.00-22.28L298.00-22.28Q299.35-11.05 299.35 0L299.35 0L286.14 1.08L286.14 1.08Q286.14-15.90 284.89-29.74L284.89-29.74L284.89-29.74Q275.09-26.14 271.86 0.45L271.86 0.45L264.58 1.08L260.90-35.40L276.62-37.82L274.91-24.89L275.63-24.89L275.63-24.89Q278.60-31.27 282.33-34.90L282.33-34.90L282.33-34.90Q286.05-38.54 290.10-38.54ZM313.06-43.53L313.06-43.53L313.06-43.53Q311.04-45.55 311.04-48.38L311.04-48.38L311.04-48.38Q311.04-51.21 313.06-53.19L313.06-53.19L313.06-53.19Q315.09-55.16 317.87-55.16L317.87-55.16L317.87-55.16Q320.66-55.16 322.68-53.19L322.68-53.19L322.68-53.19Q324.70-51.21 324.70-48.38L324.70-48.38L324.70-48.38Q324.70-45.55 322.68-43.53L322.68-43.53L322.68-43.53Q320.66-41.51 317.87-41.51L317.87-41.51L317.87-41.51Q315.09-41.51 313.06-43.53ZM310.59 9.88L310.59 9.88L310.59 9.88Q305.83 9.88 301.79 6.65L301.79 6.65L303.95 2.88L303.95 2.88Q306.19 4.49 308.89 4.40L308.89 4.40L308.89 4.40Q314.10 4.40 314.10-2.07L314.10-2.07L314.10-2.07Q314.10-2.79 310.77-35.40L310.77-35.40L326.50-37.64L321.73 0.36L321.73 0.36Q320.57 9.88 310.59 9.88ZM342.41 1.71L342.41 1.71L342.41 1.71Q341.15 1.71 340.61 1.62L340.61 1.62L340.61 1.62Q338.10-0.09 336.62-3.41L336.62-3.41L336.62-3.41Q335.13-6.74 335.13-10.92L335.13-10.92L335.13-10.92Q335.13-15.09 338.68-17.21L338.68-17.21L338.68-17.21Q342.23-19.32 351.75-19.32L351.75-19.32L351.75-19.32Q355.26-19.32 359.21-18.87L359.21-18.87L359.03-20.48L359.03-20.48Q358.76-23.45 356.25-25.16L356.25-25.16L356.25-25.16Q353.73-26.86 349.82-26.86L349.82-26.86L349.82-26.86Q345.91-26.86 342.05-24.44L342.05-24.44L338.82-35.04L338.82-35.04Q345.11-37.64 353.19-37.64L353.19-37.64L353.19-37.64Q361.28-37.64 365.99-34.01L365.99-34.01L365.99-34.01Q370.71-30.37 370.71-22.64L370.71-22.64L370.71-22.64Q370.71-20.84 370.53-19.86L370.53-19.86L368.55 0.45L361.19 1.08L360.11-9.52L359.57-9.52L359.57-9.52Q357.05-4.22 352.61-1.26L352.61-1.26L352.61-1.26Q348.16 1.71 342.41 1.71ZM359.48-15.72L359.48-15.72L355.62-15.81L355.62-15.81Q350.77-15.81 347.62-15.27L347.62-15.27L347.62-15.27Q346.63-13.21 346.63-11.59L346.63-11.59L346.63-11.59Q346.63-9.97 347.04-8.49L347.04-8.49L347.04-8.49Q347.44-7.01 347.98-6.56L347.98-6.56L347.98-6.56Q356.79-7.91 359.48-15.72Z"></path></g><g id="" class="logo--name svgSloganText_1 sloganBox" transform="scale(1) translate(200.84500244259834,348.9499992370605)" fill="#ffffff"><path d="M4.59 0.94L4.59 0.94L4.59 0.94Q2.25 0.94-0.28-0.38L-0.28-0.38L0.38-2.48L0.38-2.48Q2.06-1.97 3.05-1.92L3.05-1.92L3.05-1.92Q5.81-1.92 5.81-5.34L5.81-5.34L5.81-5.34Q5.81-5.86 4.17-24.98L4.17-24.98L13.27-25.55L11.16-5.39L11.16-5.39Q10.50 0.94 4.59 0.94ZM21.28 0.89L21.28 0.89L21.28 0.89Q20.63 0.89 20.34 0.84L20.34 0.84L20.34 0.84Q19.03-0.05 18.26-1.78L18.26-1.78L18.26-1.78Q17.48-3.52 17.48-5.70L17.48-5.70L17.48-5.70Q17.48-7.88 19.34-8.98L19.34-8.98L19.34-8.98Q21.19-10.08 26.16-10.08L26.16-10.08L26.16-10.08Q27.98-10.08 30.05-9.84L30.05-9.84L29.95-10.69L29.95-10.69Q29.81-12.23 28.50-13.13L28.50-13.13L28.50-13.13Q27.19-14.02 25.15-14.02L25.15-14.02L25.15-14.02Q23.11-14.02 21.09-12.75L21.09-12.75L19.41-18.28L19.41-18.28Q22.69-19.64 26.91-19.64L26.91-19.64L26.91-19.64Q31.13-19.64 33.59-17.74L33.59-17.74L33.59-17.74Q36.05-15.84 36.05-11.81L36.05-11.81L36.05-11.81Q36.05-10.88 35.95-10.36L35.95-10.36L34.92 0.23L31.08 0.56L30.52-4.97L30.23-4.97L30.23-4.97Q28.92-2.20 26.60-0.66L26.60-0.66L26.60-0.66Q24.28 0.89 21.28 0.89ZM30.19-8.20L30.19-8.20L28.17-8.25L28.17-8.25Q25.64-8.25 24-7.97L24-7.97L24-7.97Q23.48-6.89 23.48-6.05L23.48-6.05L23.48-6.05Q23.48-5.20 23.70-4.43L23.70-4.43L23.70-4.43Q23.91-3.66 24.19-3.42L24.19-3.42L24.19-3.42Q28.78-4.13 30.19-8.20ZM56.63-20.11L56.63-20.11L56.63-20.11Q57.33-20.11 58.03-19.83L58.03-19.83L58.03-19.83Q59.44-18.19 60.28-14.86L60.28-14.86L60.28-14.86Q61.13-11.53 61.13-7.45L61.13-7.45L61.13-7.45Q61.13-3.38 59.34-1.22L59.34-1.22L59.34-1.22Q57.56 0.94 53.16 0.94L53.16 0.94L53.16 0.94Q50.02 0.94 47.25-0.38L47.25-0.38L46.17 7.97L42.61 8.34L41.44-18.47L49.64-19.73L48.80-12.98L49.08-12.98L49.08-12.98Q50.63-16.27 52.57-18.19L52.57-18.19L52.57-18.19Q54.52-20.11 56.63-20.11ZM51.66-1.45L51.66-1.45L51.66-1.45Q53.06-1.45 54.09-1.97L54.09-1.97L54.09-1.97Q54.66-4.92 54.66-7.59L54.66-7.59L54.66-7.59Q54.66-13.27 53.91-15.52L53.91-15.52L53.91-15.52Q53.06-15.19 52.64-14.95L52.64-14.95L52.64-14.95Q52.22-14.72 51.28-13.88L51.28-13.88L51.28-13.88Q48.56-11.34 47.53-2.86L47.53-2.86L47.53-2.86Q49.22-1.45 51.66-1.45ZM69.47 0.89L69.47 0.89L69.47 0.89Q68.81 0.89 68.53 0.84L68.53 0.84L68.53 0.84Q67.22-0.05 66.45-1.78L66.45-1.78L66.45-1.78Q65.67-3.52 65.67-5.70L65.67-5.70L65.67-5.70Q65.67-7.88 67.52-8.98L67.52-8.98L67.52-8.98Q69.38-10.08 74.34-10.08L74.34-10.08L74.34-10.08Q76.17-10.08 78.23-9.84L78.23-9.84L78.14-10.69L78.14-10.69Q78-12.23 76.69-13.13L76.69-13.13L76.69-13.13Q75.38-14.02 73.34-14.02L73.34-14.02L73.34-14.02Q71.30-14.02 69.28-12.75L69.28-12.75L67.59-18.28L67.59-18.28Q70.88-19.64 75.09-19.64L75.09-19.64L75.09-19.64Q79.31-19.64 81.77-17.74L81.77-17.74L81.77-17.74Q84.23-15.84 84.23-11.81L84.23-11.81L84.23-11.81Q84.23-10.88 84.14-10.36L84.14-10.36L83.11 0.23L79.27 0.56L78.70-4.97L78.42-4.97L78.42-4.97Q77.11-2.20 74.79-0.66L74.79-0.66L74.79-0.66Q72.47 0.89 69.47 0.89ZM78.38-8.20L78.38-8.20L76.36-8.25L76.36-8.25Q73.83-8.25 72.19-7.97L72.19-7.97L72.19-7.97Q71.67-6.89 71.67-6.05L71.67-6.05L71.67-6.05Q71.67-5.20 71.88-4.43L71.88-4.43L71.88-4.43Q72.09-3.66 72.38-3.42L72.38-3.42L72.38-3.42Q76.97-4.13 78.38-8.20ZM104.30-20.11L104.30-20.11L104.30-20.11Q105-20.11 105.75-19.83L105.75-19.83L105.75-19.83Q107.72-17.48 108.42-11.63L108.42-11.63L108.42-11.63Q109.13-5.77 109.13 0L109.13 0L102.23 0.56L102.23 0.56Q102.23-8.30 101.58-15.52L101.58-15.52L101.58-15.52Q96.47-13.64 94.78 0.23L94.78 0.23L90.98 0.56L89.06-18.47L97.27-19.73L96.38-12.98L96.75-12.98L96.75-12.98Q98.30-16.31 100.24-18.21L100.24-18.21L100.24-18.21Q102.19-20.11 104.30-20.11ZM120.94-20.72L120.94-20.72L120.94-20.72Q130.22-17.02 130.22-11.44L130.22-11.44L130.22-11.44Q130.22-8.53 128.58-7.27L128.58-7.27L128.58-7.27Q126.94-6 123.35-6L123.35-6L123.35-6Q119.77-6 117.94-6.42L117.94-6.42L117.94-6.42Q117.23-4.64 117.19-2.67L117.19-2.67L117.19-2.67Q118.92-2.44 122.02-2.44L122.02-2.44L122.02-2.44Q125.11-2.44 128.67-3.66L128.67-3.66L129.80 0.05L129.80 0.05Q126.98 0.94 123.52 0.94L123.52 0.94L123.52 0.94Q117.28 0.94 114.38-1.36L114.38-1.36L114.38-1.36Q113.77-4.08 113.77-6.47L113.77-6.47L113.77-6.47Q113.77-11.30 115.90-15.21L115.90-15.21L115.90-15.21Q118.03-19.13 120.94-20.72ZM118.69-8.20L118.69-8.20L118.69-8.20Q119.16-8.16 121.20-8.16L121.20-8.16L121.20-8.16Q123.23-8.16 125.86-8.72L125.86-8.72L125.86-8.72Q125.95-9.42 126-10.17L126-10.17L126-10.17Q126-12.47 124.69-14.58L124.69-14.58L124.69-14.58Q120.84-12.05 118.69-8.20ZM134.58-12.66L134.58-12.66L134.58-12.66Q134.58-17.58 139.78-21.66L139.78-21.66L146.06-17.39L146.06-17.39Q141.80-14.67 141.80-11.67L141.80-11.67L141.80-11.67Q141.80-10.08 143.55-7.55L143.55-7.55L143.55-7.55Q145.31-5.02 145.31-3.61L145.31-3.61L145.31-3.61Q145.31 1.41 138.38 4.17L138.38 4.17L136.69 1.88L136.69 1.88Q139.73 0.23 139.73-1.71L139.73-1.71L139.73-1.71Q139.73-3.66 137.16-6.52L137.16-6.52L137.16-6.52Q136.17-7.59 135.38-9.26L135.38-9.26L135.38-9.26Q134.58-10.92 134.58-12.66ZM157.45-20.72L157.45-20.72L157.45-20.72Q166.73-17.02 166.73-11.44L166.73-11.44L166.73-11.44Q166.73-8.53 165.09-7.27L165.09-7.27L165.09-7.27Q163.45-6 159.87-6L159.87-6L159.87-6Q156.28-6 154.45-6.42L154.45-6.42L154.45-6.42Q153.75-4.64 153.70-2.67L153.70-2.67L153.70-2.67Q155.44-2.44 158.53-2.44L158.53-2.44L158.53-2.44Q161.63-2.44 165.19-3.66L165.19-3.66L166.31 0.05L166.31 0.05Q163.50 0.94 160.03 0.94L160.03 0.94L160.03 0.94Q153.80 0.94 150.89-1.36L150.89-1.36L150.89-1.36Q150.28-4.08 150.28-6.47L150.28-6.47L150.28-6.47Q150.28-11.30 152.41-15.21L152.41-15.21L152.41-15.21Q154.55-19.13 157.45-20.72ZM155.20-8.20L155.20-8.20L155.20-8.20Q155.67-8.16 157.71-8.16L157.71-8.16L157.71-8.16Q159.75-8.16 162.38-8.72L162.38-8.72L162.38-8.72Q162.47-9.42 162.52-10.17L162.52-10.17L162.52-10.17Q162.52-12.47 161.20-14.58L161.20-14.58L161.20-14.58Q157.36-12.05 155.20-8.20ZM185.25 0.56L181.45 0L188.63-25.55L197.91-24.98L202.88 0L199.45 0.56L196.78-5.81L186.56-4.97L185.25 0.56ZM190.59-20.72L190.31-20.72L187.27-7.92L195.94-7.83L190.59-20.72ZM219.52-12.66L219.52-12.66L219.52-12.66Q216.89-12.66 215.55-10.83L215.55-10.83L215.55-10.83Q214.22-9 213.56-4.13L213.56-4.13L213.05 0.23L209.25 0.56L207.33-18.47L215.53-19.73L214.73-13.59L215.02-13.59L215.02-13.59Q218.11-20.20 222.84-20.63L222.84-20.63L221.77-12.47L221.77-12.47Q220.36-12.66 219.52-12.66ZM232.41 0.23L228.61 0.56L226.97-14.91L223.41-14.44L223.17-18.38L226.55-18.56L225.98-23.91L235.55-25.22L234.75-18.98L238.59-19.17L238.45-16.59L234.38-16.03L232.41 0.23Z"></path></g></g></g></g></svg>